<svg width="187" height="52" viewBox="0 0 187 52" fill="none" xmlns="http://www.w3.org/2000/svg">
<g filter="url(#filter0_d_1_13)">
<path d="M35.6972 31.0817C35.6972 33.0476 35.3074 34.7976 34.5303 36.3331C33.7516 37.8686 32.6772 39.1589 31.3049 40.2039C29.9327 41.2482 28.2843 42.0464 26.3598 42.5994C24.4345 43.1524 22.346 43.4293 20.0942 43.4293C17.1044 43.4293 14.2899 43.0094 11.6476 42.1698C9.00613 41.3317 6.45717 39.9075 4 37.9003L7.93178 32.8023C9.77428 34.1536 11.7296 35.2083 13.7978 35.966C15.8653 36.7243 17.944 37.1028 20.0325 37.1028C22.817 37.1028 24.8949 36.5415 26.268 35.416C27.6395 34.292 28.3257 32.8716 28.3257 31.1532C28.3257 29.969 28.0495 29.0075 27.4966 28.2717C26.9436 27.5359 26.1958 26.9227 25.2546 26.4322C24.3126 25.9424 23.2375 25.5535 22.03 25.2676C20.8217 24.9817 19.5623 24.6747 18.2525 24.3467C16.6139 23.9796 15.0272 23.5093 13.4916 22.9368C11.9561 22.3643 10.6049 21.618 9.43722 20.6978C8.27033 19.7785 7.32764 18.6537 6.6114 17.3258C5.89442 15.9972 5.5363 14.3713 5.5363 12.4506C5.5363 10.6517 5.86357 8.99432 6.51886 7.4821C7.17341 5.96913 8.1161 4.66079 9.34468 3.5571C10.5733 2.4534 12.0471 1.58521 13.767 0.95173C15.4868 0.317502 17.4114 0 19.5412 0C22.0797 0 24.588 0.254306 27.0655 0.760636C29.5429 1.26772 31.9083 2.23145 34.1609 3.65038L31.0281 9.39833C29.1442 8.25325 27.2701 7.45427 25.4073 7.00286C23.543 6.55296 21.711 6.32724 19.9091 6.32724C18.9258 6.32724 17.9944 6.45062 17.1142 6.69589C16.2332 6.94115 15.4552 7.3098 14.7796 7.80184C14.104 8.29312 13.5608 8.91758 13.1516 9.6752C12.7423 10.4336 12.5376 11.3243 12.5376 12.3475C12.5376 13.3715 12.804 14.2314 13.3366 14.9281C13.8685 15.6248 14.575 16.2078 15.456 16.678C16.3362 17.1498 17.3391 17.538 18.4654 17.8449C19.5916 18.1519 20.7691 18.4287 21.9977 18.6755C24.0042 19.1269 25.8467 19.6581 27.5259 20.272C29.2044 20.8867 30.6481 21.6751 31.8564 22.6374C33.0639 23.5996 34.0066 24.756 34.6822 26.108C35.3578 27.4599 35.6972 29.1158 35.6972 31.0817Z" fill="white"/>
<path d="M83.3907 15.1725C81.8183 13.2473 79.4409 12.285 76.2562 12.285C75.725 12.285 75.1435 12.3174 74.5115 12.3783C73.878 12.4408 73.164 12.5965 72.3681 12.8433C71.5713 13.0923 70.6745 13.4436 69.6739 13.8981C68.674 14.3532 67.5613 14.9529 66.3365 15.6969L65.7218 12.6537H65.5398H59.8249V33.9158C56.6621 36.1217 53.9506 37.2246 51.6905 37.2246C50.3739 37.2246 49.2424 36.8153 48.2952 35.9952C47.3488 35.1767 46.8755 33.7442 46.8755 31.6956V12.6529H40.364V32.2478C40.364 35.6484 41.2028 38.3606 42.8828 40.3867C44.5613 42.4143 47.0598 43.4277 50.3769 43.4277C51.4001 43.4277 52.6393 43.2328 54.0935 42.8446C55.5471 42.4557 57.4618 41.5446 59.837 40.1106L60.4456 43.0598H60.6021H66.3365H66.3485V21.6675C67.8999 20.691 69.37 19.9379 70.7588 19.4075C72.1506 18.8771 73.4003 18.6108 74.5055 18.6108C75.8567 18.6108 76.983 19.0088 77.8843 19.8055C78.7848 20.6022 79.2355 22.0437 79.2355 24.1255V43.059H85.7463V23.1557C85.747 19.7589 84.9616 17.097 83.3907 15.1725Z" fill="white"/>
<path d="M97.9216 3.43975V43.0606H94.9731V3.43975H81.7047V0.736572H111.067V3.43975H97.9216Z" fill="white"/>
<path d="M132.692 32.4337C132.692 35.8735 131.603 38.5661 129.427 40.5109C127.25 42.4565 124.353 43.4285 120.741 43.4285C118.974 43.4285 117.363 43.172 115.906 42.6604C114.448 42.1488 113.195 41.4115 112.149 40.4492C111.102 39.4877 110.291 38.3404 109.716 37.0095C109.141 35.6794 108.854 34.1739 108.854 32.4947V23.2807C108.854 21.6436 109.171 20.1584 109.808 18.8268C110.444 17.4966 111.306 16.3696 112.394 15.4487C113.483 14.5271 114.746 13.8116 116.182 13.2993C117.619 12.7877 119.158 12.5311 120.803 12.5311C122.485 12.5311 124.056 12.7884 125.516 13.2993C126.974 13.8124 128.237 14.5279 129.303 15.4487C130.372 16.3703 131.202 17.4974 131.797 18.8268C132.392 20.1584 132.691 21.6436 132.691 23.2807V32.4337H132.692ZM129.927 24.1007C129.927 22.4591 129.651 21.0635 129.098 19.9139C128.546 18.7658 127.839 17.8307 126.979 17.1122C126.119 16.3944 125.144 15.8708 124.058 15.5413C122.972 15.2133 121.898 15.0492 120.833 15.0492C119.728 15.0492 118.622 15.214 117.516 15.5413C116.411 15.8708 115.429 16.3944 114.567 17.1122C113.707 17.8307 113.001 18.7651 112.449 19.9139C111.896 21.0635 111.62 22.4598 111.62 24.1007V31.7972C111.62 33.4795 111.875 34.8969 112.388 36.045C112.9 37.1953 113.574 38.129 114.414 38.8475C115.253 39.566 116.226 40.0889 117.333 40.4176C118.438 40.7464 119.605 40.9097 120.833 40.9097C122.063 40.9097 123.219 40.7366 124.304 40.3875C125.39 40.0377 126.355 39.4937 127.194 38.7549C128.033 38.0161 128.699 37.0727 129.191 35.9231C129.681 34.7728 129.927 33.3975 129.927 31.7972V24.1007Z" fill="white"/>
<path d="M159.71 43.0605L159.228 38.8828C157.835 39.7427 156.596 40.4597 155.512 41.0322C154.427 41.607 153.444 42.0772 152.564 42.4459C151.682 42.8138 150.874 43.0688 150.137 43.2133C149.4 43.3562 148.682 43.4284 147.987 43.4284C144.874 43.4284 142.479 42.579 140.8 40.8795C139.121 39.1799 138.281 36.5903 138.281 33.1085V12.8989H141.045V32.3892C141.045 35.373 141.68 37.509 142.95 38.7962C144.219 40.0828 145.979 40.7253 148.232 40.7253C149.706 40.7253 151.405 40.2874 153.33 39.4079C155.255 38.5299 157.22 37.3751 159.227 35.9448V12.8989H161.991V43.0605H159.71Z" fill="white"/>
<path d="M183 15.7247C180.256 16.0121 177.983 16.6065 176.181 17.5063C174.379 18.4076 172.967 19.2059 171.943 19.9025V43.0605H169.179V12.8989H171.513L171.943 17.3837H172.004C172.618 16.8517 173.345 16.3078 174.185 15.7556C175.023 15.2034 175.935 14.6918 176.918 14.22C177.901 13.7498 178.914 13.3707 179.959 13.0833C181.003 12.7974 182.017 12.613 182.999 12.5303V15.7247H183Z" fill="white"/>
</g>
<defs>
<filter id="filter0_d_1_13" x="0" y="0" width="187" height="51.4292" filterUnits="userSpaceOnUse" color-interpolation-filters="sRGB">
<feFlood flood-opacity="0" result="BackgroundImageFix"/>
<feColorMatrix in="SourceAlpha" type="matrix" values="0 0 0 0 0 0 0 0 0 0 0 0 0 0 0 0 0 0 127 0" result="hardAlpha"/>
<feOffset dy="4"/>
<feGaussianBlur stdDeviation="2"/>
<feComposite in2="hardAlpha" operator="out"/>
<feColorMatrix type="matrix" values="0 0 0 0 0 0 0 0 0 0 0 0 0 0 0 0 0 0 0.25 0"/>
<feBlend mode="normal" in2="BackgroundImageFix" result="effect1_dropShadow_1_13"/>
<feBlend mode="normal" in="SourceGraphic" in2="effect1_dropShadow_1_13" result="shape"/>
</filter>
</defs>
</svg>
